<svg width="340" height="467" viewBox="0 0 340 467" fill="none" xmlns="http://www.w3.org/2000/svg">
<g clip-path="url(#clip0)">
<path d="M291.663 148.212C263.336 117.653 235.435 87.1225 207.215 56.563C194.975 43.6328 189.025 27.2002 191.511 5.95155C191.936 0.668583 189.79 -1.11187 185.561 0.668583C175.828 4.75486 167.796 12.4312 163.142 24.7776C156.767 42.407 146.673 48.8866 133.923 48.3029C114.862 47.1062 103.047 61.2622 92.8892 81.2849C81.8392 102.534 76.4204 127.226 72.1916 151.948C67.5378 178.451 65.3703 204.982 64.6053 231.952C63.7341 252.587 64.1803 272.61 63.7341 293.129C63.7341 294.326 63.7341 294.939 63.7341 295.522V350.249H250.756V308.978C250.756 308.978 252.265 291.611 242.915 278.885C233.565 266.16 223.641 254.251 223.641 254.251C218.86 248.881 214.504 242.751 210.742 236.067L176.253 174.773C178.4 177.166 180.482 179.443 182.629 181.836C193.232 192.986 204.622 197.685 217.712 192.986C225.299 190.593 232.97 191.789 239.706 197.656C243.468 201.1 247.633 204.077 251.819 207.055C261.658 214.06 273.77 210.849 280.847 199.174C285.203 191.994 289.559 184.814 293.915 177.75C299.462 168.731 298.442 155.509 291.663 148.212Z" fill="white"/>
<path d="M275.131 445.897L253.881 387.493C252.074 382.56 248.398 379.437 244.382 379.437H74.3807C70.3645 379.437 66.6882 382.56 64.8819 387.493L43.6318 445.868C41.9743 450.392 42.1656 455.763 44.0993 460.053C46.0331 464.344 49.4544 467 53.1306 467H265.632C269.308 467 272.729 464.373 274.684 460.083C276.618 455.792 276.788 450.421 275.131 445.897Z" fill="white"/>
<g clip-path="url(#clip1)">
<path d="M209.19 91.9568L213.081 88.4089L209.252 84.9167L205.089 88.712C201.285 86.2549 196.847 84.7406 192.208 84.3173V79.2561H197.625V74.3183H181.375V79.2561H186.792V84.3173C182.153 84.7406 177.715 86.2549 173.912 88.712L169.748 84.9167L165.919 88.4089L169.81 91.9568C166.178 95.4631 163.751 99.8626 162.83 104.612C161.909 109.361 162.534 114.253 164.629 118.682C166.723 123.111 170.194 126.884 174.614 129.535C179.034 132.186 184.209 133.598 189.5 133.598C194.791 133.598 199.966 132.186 204.386 129.535C208.806 126.884 212.277 123.111 214.371 118.682C216.466 114.253 217.091 109.361 216.17 104.612C215.249 99.8626 212.822 95.4631 209.19 91.9568ZM189.5 128.634C185.215 128.634 181.026 127.476 177.463 125.306C173.9 123.135 171.123 120.051 169.483 116.441C167.843 112.832 167.414 108.861 168.25 105.03C169.086 101.198 171.149 97.679 174.179 94.9167C177.209 92.1545 181.07 90.2733 185.273 89.5112C189.476 88.7491 193.832 89.1403 197.791 90.6352C201.751 92.1301 205.134 94.6617 207.515 97.9098C209.896 101.158 211.167 104.977 211.167 108.883C211.16 114.12 208.875 119.14 204.814 122.843C200.752 126.546 195.244 128.628 189.5 128.634Z" fill="black"/>
<path d="M189.5 94.0695V108.883H173.25C173.25 111.813 174.203 114.677 175.989 117.113C177.774 119.549 180.312 121.448 183.281 122.569C186.251 123.69 189.518 123.983 192.67 123.412C195.822 122.84 198.718 121.429 200.99 119.358C203.263 117.286 204.811 114.646 205.438 111.773C206.065 108.899 205.743 105.921 204.513 103.214C203.283 100.507 201.2 98.1938 198.528 96.566C195.856 94.9383 192.714 94.0695 189.5 94.0695Z" fill="black"/>
</g>
</g>
<defs>
<clipPath id="clip0">
<rect width="340" height="467" fill="white"/>
</clipPath>
<clipPath id="clip1">
<rect width="65" height="59.2538" fill="white" transform="translate(157 74.3183)"/>
</clipPath>
</defs>
</svg>
